<svg width="1200" height="630" viewBox="0 0 1200 630" fill="none" xmlns="http://www.w3.org/2000/svg">
  <rect width="1200" height="630" rx="36" fill="#0F2749"/>
  <rect x="68" y="68" width="1064" height="494" rx="28" fill="#132F57"/>
  <rect x="122" y="134" width="430" height="44" rx="10" fill="#F97316"/>
  <rect x="122" y="216" width="640" height="26" rx="10" fill="#DCE7F5" fill-opacity="0.9"/>
  <rect x="122" y="262" width="582" height="26" rx="10" fill="#DCE7F5" fill-opacity="0.6"/>
  <rect x="122" y="308" width="420" height="26" rx="10" fill="#DCE7F5" fill-opacity="0.5"/>
  <rect x="122" y="390" width="186" height="56" rx="18" fill="#F8FAFC"/>
  <rect x="776" y="146" width="250" height="332" rx="28" fill="#F8FAFC" fill-opacity="0.08"/>
  <rect x="822" y="193" width="157" height="18" rx="9" fill="#F97316"/>
  <rect x="822" y="244" width="120" height="18" rx="9" fill="#E2E8F0"/>
  <rect x="822" y="288" width="146" height="18" rx="9" fill="#E2E8F0" fill-opacity="0.8"/>
  <rect x="822" y="332" width="132" height="18" rx="9" fill="#E2E8F0" fill-opacity="0.65"/>
</svg>
